<svg width="250" height="250" viewBox="0 0 250 250" fill="none" xmlns="http://www.w3.org/2000/svg">
<path d="M125 30L31.9 63.2L46.1 186.3L125 230L203.9 186.3L218.1 63.2L125 30Z" fill="#1E1E1E"/>
<path d="M125 30V52.2V52.1V153.4V230L203.9 186.3L218.1 63.2L125 30Z" fill="#1B0006"/>
<path d="M125 67C105.487 67 90.2 76.3419 90.2 88.2667C90.2 94.4707 94.3603 99.9592 101.079 103.813L114.435 117.168C116.253 118.977 117.273 121.439 117.267 124.004V125.996C117.273 128.561 116.254 131.022 114.437 132.832L101.081 146.185C94.3622 150.041 90.2 155.529 90.2 161.733C90.2 173.658 105.487 183 125 183C144.513 183 159.8 173.658 159.8 161.733C159.8 155.529 155.638 150.041 148.919 146.185L135.565 132.832C133.747 131.023 132.727 128.561 132.733 125.996V124.004C132.727 121.439 133.746 118.978 135.563 117.168L148.917 103.815C155.638 99.9611 159.8 94.4707 159.8 88.2667C159.8 76.3419 144.513 67 125 67ZM155.933 161.733C155.933 171.166 141.768 179.133 125 179.133C108.232 179.133 94.0667 171.166 94.0667 161.733C94.0667 152.301 108.232 144.333 125 144.333C141.768 144.333 155.933 152.301 155.933 161.733ZM132.83 114.435C130.285 116.967 128.857 120.413 128.867 124.004V125.996C128.857 129.587 130.285 133.033 132.83 135.565L139.668 142.4C130.06 139.82 119.94 139.82 110.332 142.4L117.17 135.563C119.715 133.031 121.142 129.586 121.133 125.996V124.004C121.143 120.413 119.715 116.967 117.17 114.435L110.332 107.6C115.112 108.902 120.046 109.552 125 109.533C129.953 109.553 134.887 108.903 139.666 107.6L132.83 114.435ZM125 105.667C108.232 105.667 94.0667 97.6992 94.0667 88.2667C94.0667 78.8341 108.232 70.8667 125 70.8667C141.768 70.8667 155.933 78.8341 155.933 88.2667C155.933 97.6992 141.768 105.667 125 105.667Z" fill="url(#paint0_linear)"/>
<path d="M125 74.7333C109.05 74.7333 97.9333 81.8653 97.9333 88.2667C97.9333 94.668 109.05 101.8 125 101.8C140.95 101.8 152.067 94.668 152.067 88.2667C152.067 81.8653 140.95 74.7333 125 74.7333ZM125 97.9333C109.694 97.9333 101.8 91.1572 101.8 88.2667C101.8 85.3761 109.694 78.6 125 78.6C140.306 78.6 148.2 85.3761 148.2 88.2667C148.2 91.1572 140.306 97.9333 125 97.9333Z" fill="url(#paint1_linear)"/>
<path d="M142.013 86.6411C136.851 83.6674 130.952 82.2203 125 82.4666C119.048 82.2203 113.149 83.6674 107.987 86.6411C107.434 86.997 107.1 87.6087 107.1 88.2666C107.1 88.9246 107.434 89.5363 107.987 89.8922C113.149 92.8659 119.048 94.313 125 94.0666C130.952 94.313 136.851 92.8659 142.013 89.8922C142.566 89.5363 142.9 88.9246 142.9 88.2666C142.9 87.6087 142.566 86.997 142.013 86.6411ZM125 90.2C121.048 90.2642 117.118 89.609 113.4 88.2666C117.118 86.9243 121.048 86.2691 125 86.3333C128.952 86.2691 132.882 86.9243 136.6 88.2666C132.882 89.609 128.952 90.2642 125 90.2Z" fill="url(#paint2_linear)"/>
<path d="M97.9333 161.733C97.9333 168.135 109.05 175.267 125 175.267C140.95 175.267 152.067 168.135 152.067 161.733C152.067 155.332 140.95 148.2 125 148.2C109.05 148.2 97.9333 155.332 97.9333 161.733ZM148.2 161.733C148.2 164.624 140.306 171.4 125 171.4C109.694 171.4 101.8 164.633 101.8 161.733C101.8 158.833 109.694 152.067 125 152.067C140.306 152.067 148.2 158.843 148.2 161.733Z" fill="url(#paint3_linear)"/>
<path d="M107.987 160.108C107.434 160.464 107.1 161.075 107.1 161.733C107.1 162.391 107.434 163.003 107.987 163.359C113.149 166.333 119.048 167.78 125 167.533C130.952 167.78 136.851 166.333 142.013 163.359C142.566 163.003 142.9 162.391 142.9 161.733C142.9 161.075 142.566 160.464 142.013 160.108C136.851 157.134 130.952 155.687 125 155.933C119.048 155.687 113.149 157.134 107.987 160.108ZM125 163.667C121.048 163.731 117.118 163.076 113.4 161.733C117.118 160.391 121.048 159.736 125 159.8C128.952 159.736 132.882 160.391 136.6 161.733C132.882 163.076 128.952 163.731 125 163.667Z" fill="url(#paint4_linear)"/>
<path d="M90.2 152.067C90.2 154.202 88.4687 155.933 86.3333 155.933C84.198 155.933 82.4667 154.202 82.4667 152.067C82.4667 149.931 84.198 148.2 86.3333 148.2C88.4687 148.2 90.2 149.931 90.2 152.067Z" fill="url(#paint5_linear)"/>
<path d="M72.8 82.4666C69.597 82.4666 67 85.0636 67 88.2666C67 91.4697 69.597 94.0666 72.8 94.0666C76.003 94.0666 78.6 91.4697 78.6 88.2666C78.6 85.0636 76.003 82.4666 72.8 82.4666ZM72.8 90.2C71.7323 90.2 70.8667 89.3343 70.8667 88.2666C70.8667 87.199 71.7323 86.3333 72.8 86.3333C73.8677 86.3333 74.7333 87.199 74.7333 88.2666C74.7333 89.3343 73.8677 90.2 72.8 90.2Z" fill="url(#paint6_linear)"/>
<path d="M152.067 117.267H155.933V121.133H152.067V117.267Z" fill="url(#paint7_linear)"/>
<path d="M155.933 109.533H159.8V113.4H155.933V109.533Z" fill="url(#paint8_linear)"/>
<path d="M74.7333 167.533H78.6V171.4H74.7333V167.533Z" fill="url(#paint9_linear)"/>
<path d="M82.4667 107.6H86.3333V111.467H82.4667V107.6Z" fill="url(#paint10_linear)"/>
<path d="M175.267 74.7333C170.996 74.7333 167.533 78.196 167.533 82.4667C167.533 86.7374 170.996 90.2 175.267 90.2C179.537 90.2 183 86.7374 183 82.4667C183 78.196 179.537 74.7333 175.267 74.7333ZM175.267 86.3333C173.131 86.3333 171.4 84.602 171.4 82.4667C171.4 80.3313 173.131 78.6 175.267 78.6C177.402 78.6 179.133 80.3313 179.133 82.4667C179.133 84.602 177.402 86.3333 175.267 86.3333Z" fill="url(#paint11_linear)"/>
<path d="M171.4 97.9333C171.4 100.069 169.669 101.8 167.533 101.8C165.398 101.8 163.667 100.069 163.667 97.9333C163.667 95.798 165.398 94.0667 167.533 94.0667C169.669 94.0667 171.4 95.798 171.4 97.9333Z" fill="url(#paint12_linear)"/>
<path d="M171.4 171.4H175.267V175.267H171.4V171.4Z" fill="url(#paint13_linear)"/>
<defs>
<linearGradient id="paint0_linear" x1="65.0667" y1="125" x2="190.613" y2="125" gradientUnits="userSpaceOnUse">
<stop stop-color="#20D6DE"/>
<stop offset="1" stop-color="#C24AD2"/>
</linearGradient>
<linearGradient id="paint1_linear" x1="65.0666" y1="88.2667" x2="190.613" y2="88.2667" gradientUnits="userSpaceOnUse">
<stop stop-color="#20D6DE"/>
<stop offset="1" stop-color="#C24AD2"/>
</linearGradient>
<linearGradient id="paint2_linear" x1="65.0667" y1="88.2666" x2="190.613" y2="88.2666" gradientUnits="userSpaceOnUse">
<stop stop-color="#20D6DE"/>
<stop offset="1" stop-color="#C24AD2"/>
</linearGradient>
<linearGradient id="paint3_linear" x1="65.0666" y1="161.733" x2="190.613" y2="161.733" gradientUnits="userSpaceOnUse">
<stop stop-color="#20D6DE"/>
<stop offset="1" stop-color="#C24AD2"/>
</linearGradient>
<linearGradient id="paint4_linear" x1="65.0667" y1="161.733" x2="190.613" y2="161.733" gradientUnits="userSpaceOnUse">
<stop stop-color="#20D6DE"/>
<stop offset="1" stop-color="#C24AD2"/>
</linearGradient>
<linearGradient id="paint5_linear" x1="65.0667" y1="152.067" x2="190.613" y2="152.067" gradientUnits="userSpaceOnUse">
<stop stop-color="#20D6DE"/>
<stop offset="1" stop-color="#C24AD2"/>
</linearGradient>
<linearGradient id="paint6_linear" x1="65.0667" y1="88.2666" x2="190.613" y2="88.2666" gradientUnits="userSpaceOnUse">
<stop stop-color="#20D6DE"/>
<stop offset="1" stop-color="#C24AD2"/>
</linearGradient>
<linearGradient id="paint7_linear" x1="65.067" y1="119.2" x2="190.613" y2="119.2" gradientUnits="userSpaceOnUse">
<stop stop-color="#20D6DE"/>
<stop offset="1" stop-color="#C24AD2"/>
</linearGradient>
<linearGradient id="paint8_linear" x1="65.0662" y1="111.467" x2="190.614" y2="111.467" gradientUnits="userSpaceOnUse">
<stop stop-color="#20D6DE"/>
<stop offset="1" stop-color="#C24AD2"/>
</linearGradient>
<linearGradient id="paint9_linear" x1="65.0667" y1="169.467" x2="190.613" y2="169.467" gradientUnits="userSpaceOnUse">
<stop stop-color="#20D6DE"/>
<stop offset="1" stop-color="#C24AD2"/>
</linearGradient>
<linearGradient id="paint10_linear" x1="65.0667" y1="109.533" x2="190.613" y2="109.533" gradientUnits="userSpaceOnUse">
<stop stop-color="#20D6DE"/>
<stop offset="1" stop-color="#C24AD2"/>
</linearGradient>
<linearGradient id="paint11_linear" x1="65.0667" y1="82.4667" x2="190.613" y2="82.4667" gradientUnits="userSpaceOnUse">
<stop stop-color="#20D6DE"/>
<stop offset="1" stop-color="#C24AD2"/>
</linearGradient>
<linearGradient id="paint12_linear" x1="65.0666" y1="97.9333" x2="190.613" y2="97.9333" gradientUnits="userSpaceOnUse">
<stop stop-color="#20D6DE"/>
<stop offset="1" stop-color="#C24AD2"/>
</linearGradient>
<linearGradient id="paint13_linear" x1="65.0666" y1="173.333" x2="190.613" y2="173.333" gradientUnits="userSpaceOnUse">
<stop stop-color="#20D6DE"/>
<stop offset="1" stop-color="#C24AD2"/>
</linearGradient>
</defs>
</svg>
