<svg width="798" height="835" viewBox="0 0 798 835" fill="none" xmlns="http://www.w3.org/2000/svg">
<g clip-path="url(#clip0)">
<path d="M308.5 834.5C478.88 834.5 617 810.1 617 780C617 749.9 478.88 725.5 308.5 725.5C138.12 725.5 0 749.9 0 780C0 810.1 138.12 834.5 308.5 834.5Z" fill="#3F3D56"/>
<path d="M496 603C662.514 603 797.5 468.014 797.5 301.5C797.5 134.986 662.514 0 496 0C329.486 0 194.5 134.986 194.5 301.5C194.5 468.014 329.486 603 496 603Z" fill="#3F3D56"/>
<path opacity="0.05" d="M496 550.398C633.462 550.398 744.898 438.962 744.898 301.5C744.898 164.038 633.462 52.6021 496 52.6021C358.537 52.6021 247.102 164.038 247.102 301.5C247.102 438.962 358.537 550.398 496 550.398Z" fill="black"/>
<path opacity="0.05" d="M496 505.494C608.663 505.494 699.994 414.163 699.994 301.5C699.994 188.837 608.663 97.5064 496 97.5064C383.337 97.5064 292.006 188.837 292.006 301.5C292.006 414.163 383.337 505.494 496 505.494Z" fill="black"/>
<path opacity="0.05" d="M496 447.76C576.777 447.76 642.26 382.277 642.26 301.5C642.26 220.723 576.777 155.24 496 155.24C415.223 155.24 349.74 220.723 349.74 301.5C349.74 382.277 415.223 447.76 496 447.76Z" fill="black"/>
<path d="M197.17 328.482C197.17 328.482 173.466 395.204 184.001 418.908C194.537 442.612 211.217 465.438 211.217 465.438C211.217 465.438 205.072 332.872 197.17 328.482Z" fill="#D0CDE1"/>
<path opacity="0.1" d="M197.17 328.482C197.17 328.482 173.466 395.204 184.001 418.908C194.537 442.612 211.217 465.438 211.217 465.438C211.217 465.438 205.072 332.872 197.17 328.482Z" fill="black"/>
<path d="M213.851 482.997C213.851 482.997 212.095 499.677 211.217 500.555C210.339 501.433 212.095 503.189 211.217 505.823C210.339 508.457 209.461 511.968 211.217 512.846C212.973 513.724 201.56 590.981 201.56 590.981C201.56 590.981 173.466 627.854 184.879 685.797L188.391 744.618C188.391 744.618 215.607 746.374 215.607 736.717C215.607 736.717 213.851 725.304 213.851 720.036C213.851 714.769 218.24 714.769 215.607 712.135C212.973 709.501 212.973 707.745 212.973 707.745C212.973 707.745 217.363 704.234 216.485 703.356C215.607 702.478 224.386 640.145 224.386 640.145C224.386 640.145 234.043 630.488 234.043 625.22V619.953C234.043 619.953 238.433 608.54 238.433 607.662C238.433 606.784 262.137 553.231 262.137 553.231L271.794 591.859L282.329 647.169C282.329 647.169 287.596 697.21 298.131 716.525C298.131 716.525 316.568 779.735 316.568 777.979C316.568 776.223 347.295 771.834 346.417 763.932C345.539 756.031 327.981 645.413 327.981 645.413L332.371 481.241L213.851 482.997Z" fill="#2F2E41"/>
<path d="M190.147 740.228C190.147 740.228 166.443 786.758 182.246 788.514C198.048 790.27 204.194 790.27 211.217 783.247C215.057 779.407 222.832 774.255 229.093 770.374C232.802 768.111 235.799 764.849 237.739 760.961C239.679 757.073 240.484 752.717 240.062 748.392C239.599 744.097 237.994 740.558 234.043 740.228C223.508 739.351 211.217 729.693 211.217 729.693L190.147 740.228Z" fill="#2F2E41"/>
<path d="M320.958 774.467C320.958 774.467 297.254 820.997 313.056 822.753C328.859 824.509 335.004 824.509 342.028 817.486C345.867 813.646 353.643 808.494 359.903 804.613C363.613 802.35 366.609 799.088 368.549 795.2C370.49 791.312 371.295 786.956 370.872 782.631C370.409 778.336 368.804 774.797 364.854 774.467C354.319 773.59 342.028 763.932 342.028 763.932L320.958 774.467Z" fill="#2F2E41"/>
<path d="M295.905 252.337C316.287 252.337 332.81 235.814 332.81 215.433C332.81 195.051 316.287 178.528 295.905 178.528C275.523 178.528 259 195.051 259 215.433C259 235.814 275.523 252.337 295.905 252.337Z" fill="#FFB8B8"/>
<path d="M272.18 227.558C272.18 227.558 245.82 276.062 243.711 276.062C241.602 276.062 291.16 291.878 291.16 291.878C291.16 291.878 304.867 245.483 306.976 241.266L272.18 227.558Z" fill="#FFB8B8"/>
<path d="M312.617 280.635C312.617 280.635 259.942 251.664 254.674 252.542C249.407 253.42 193.22 302.583 194.098 322.776C194.975 342.968 201.999 376.329 201.999 376.329C201.999 376.329 204.633 469.389 209.9 470.267C215.168 471.145 209.022 486.947 210.778 486.947C212.534 486.947 333.687 486.947 334.565 484.314C335.443 481.68 312.617 280.635 312.617 280.635Z" fill="#D0CDE1"/>
<path d="M342.028 489.142C342.028 489.142 358.708 540.062 344.661 538.306C330.615 536.55 324.469 494.41 324.469 494.41L342.028 489.142Z" fill="#FFB8B8"/>
<path d="M297.254 277.563C297.254 277.563 264.77 284.586 270.038 328.482C275.306 372.378 284.963 416.275 284.963 416.275L317.446 487.386L320.958 500.555L344.661 494.41L327.103 392.571C327.103 392.571 320.958 283.708 313.056 280.196C308.074 278.072 302.656 277.169 297.254 277.563Z" fill="#D0CDE1"/>
<path opacity="0.1" d="M277.5 414.958L317.885 486.947L283.86 411.09L277.5 414.958Z" fill="black"/>
<path d="M332.646 204.566L332.768 201.746L338.378 203.142C338.318 202.237 338.062 201.355 337.628 200.558C337.194 199.762 336.592 199.068 335.864 198.527L341.84 198.193C336.826 191.067 330.419 185.032 323.007 180.451C315.595 175.87 307.332 172.839 298.716 171.541C285.79 169.668 271.397 172.379 262.534 181.972C258.234 186.625 255.533 192.542 253.611 198.579C250.072 209.697 249.351 222.951 256.731 231.988C264.232 241.173 277.333 242.973 289.137 244.109C293.29 244.509 297.643 244.881 301.491 243.27C301.92 238.855 301.355 234.401 299.838 230.233C299.206 228.943 298.904 227.516 298.959 226.081C299.483 222.569 304.168 221.684 307.686 222.159C311.205 222.633 315.436 223.359 317.748 220.664C319.341 218.808 319.247 216.105 319.458 213.669C320.032 207.035 332.586 205.957 332.646 204.566Z" fill="#2F2E41"/>
<path d="M559 787.5C582.748 787.5 602 768.248 602 744.5C602 720.752 582.748 701.5 559 701.5C535.252 701.5 516 720.752 516 744.5C516 768.248 535.252 787.5 559 787.5Z" fill="#4F46E4"/>
<path d="M54 772.5C77.7482 772.5 97 753.248 97 729.5C97 705.752 77.7482 686.5 54 686.5C30.2518 686.5 11 705.752 11 729.5C11 753.248 30.2518 772.5 54 772.5Z" fill="#4F46E4"/>
<path d="M54 703.5C71.1208 703.5 85 689.621 85 672.5C85 655.379 71.1208 641.5 54 641.5C36.8792 641.5 23 655.379 23 672.5C23 689.621 36.8792 703.5 54 703.5Z" fill="#4F46E4"/>
<path d="M54 646.5C66.1503 646.5 76 636.65 76 624.5C76 612.35 66.1503 602.5 54 602.5C41.8497 602.5 32 612.35 32 624.5C32 636.65 41.8497 646.5 54 646.5Z" fill="#4F46E4"/>
<path d="M496 206L402.9 239.2L417.1 362.3L496 406L574.9 362.3L589.1 239.2L496 206Z" fill="#1E1E1E"/>
<path d="M496 206V228.2V228.1V329.4V406L574.9 362.3L589.1 239.2L496 206Z" fill="#1B0006"/>
<path d="M496 243C476.487 243 461.2 252.342 461.2 264.267C461.2 270.471 465.36 275.959 472.079 279.813L485.435 293.168C487.253 294.977 488.273 297.439 488.267 300.004V301.996C488.273 304.561 487.254 307.022 485.437 308.832L472.081 322.185C465.362 326.041 461.2 331.529 461.2 337.733C461.2 349.658 476.487 359 496 359C515.513 359 530.8 349.658 530.8 337.733C530.8 331.529 526.638 326.041 519.919 322.185L506.565 308.832C504.747 307.023 503.727 304.561 503.733 301.996V300.004C503.727 297.439 504.746 294.978 506.563 293.168L519.917 279.815C526.638 275.961 530.8 270.471 530.8 264.267C530.8 252.342 515.513 243 496 243ZM526.933 337.733C526.933 347.166 512.768 355.133 496 355.133C479.232 355.133 465.067 347.166 465.067 337.733C465.067 328.301 479.232 320.333 496 320.333C512.768 320.333 526.933 328.301 526.933 337.733ZM503.83 290.435C501.285 292.967 499.857 296.413 499.867 300.004V301.996C499.857 305.587 501.285 309.033 503.83 311.565L510.668 318.4C501.06 315.82 490.94 315.82 481.332 318.4L488.17 311.563C490.715 309.031 492.142 305.586 492.133 301.996V300.004C492.143 296.413 490.715 292.967 488.17 290.435L481.332 283.6C486.112 284.902 491.046 285.552 496 285.533C500.953 285.553 505.887 284.903 510.666 283.6L503.83 290.435ZM496 281.667C479.232 281.667 465.067 273.699 465.067 264.267C465.067 254.834 479.232 246.867 496 246.867C512.768 246.867 526.933 254.834 526.933 264.267C526.933 273.699 512.768 281.667 496 281.667Z" fill="url(#paint0_linear)"/>
<path d="M496 250.733C480.05 250.733 468.933 257.865 468.933 264.267C468.933 270.668 480.05 277.8 496 277.8C511.95 277.8 523.067 270.668 523.067 264.267C523.067 257.865 511.95 250.733 496 250.733ZM496 273.933C480.694 273.933 472.8 267.157 472.8 264.267C472.8 261.376 480.694 254.6 496 254.6C511.306 254.6 519.2 261.376 519.2 264.267C519.2 267.157 511.306 273.933 496 273.933Z" fill="url(#paint1_linear)"/>
<path d="M513.013 262.641C507.851 259.667 501.952 258.22 496 258.467C490.048 258.22 484.149 259.667 478.987 262.641C478.434 262.997 478.1 263.609 478.1 264.267C478.1 264.925 478.434 265.536 478.987 265.892C484.149 268.866 490.048 270.313 496 270.067C501.952 270.313 507.851 268.866 513.013 265.892C513.566 265.536 513.9 264.925 513.9 264.267C513.9 263.609 513.566 262.997 513.013 262.641ZM496 266.2C492.048 266.264 488.118 265.609 484.4 264.267C488.118 262.924 492.048 262.269 496 262.333C499.952 262.269 503.882 262.924 507.6 264.267C503.882 265.609 499.952 266.264 496 266.2Z" fill="url(#paint2_linear)"/>
<path d="M468.933 337.733C468.933 344.135 480.05 351.267 496 351.267C511.95 351.267 523.067 344.135 523.067 337.733C523.067 331.332 511.95 324.2 496 324.2C480.05 324.2 468.933 331.332 468.933 337.733ZM519.2 337.733C519.2 340.624 511.306 347.4 496 347.4C480.694 347.4 472.8 340.633 472.8 337.733C472.8 334.833 480.694 328.067 496 328.067C511.306 328.067 519.2 334.843 519.2 337.733Z" fill="url(#paint3_linear)"/>
<path d="M478.987 336.108C478.434 336.464 478.1 337.075 478.1 337.733C478.1 338.391 478.434 339.003 478.987 339.359C484.149 342.333 490.048 343.78 496 343.533C501.952 343.78 507.851 342.333 513.013 339.359C513.566 339.003 513.9 338.391 513.9 337.733C513.9 337.075 513.566 336.464 513.013 336.108C507.851 333.134 501.952 331.687 496 331.933C490.048 331.687 484.149 333.134 478.987 336.108ZM496 339.667C492.048 339.731 488.118 339.076 484.4 337.733C488.118 336.391 492.048 335.736 496 335.8C499.952 335.736 503.882 336.391 507.6 337.733C503.882 339.076 499.952 339.731 496 339.667Z" fill="url(#paint4_linear)"/>
<path d="M461.2 328.067C461.2 330.202 459.469 331.933 457.333 331.933C455.198 331.933 453.467 330.202 453.467 328.067C453.467 325.931 455.198 324.2 457.333 324.2C459.469 324.2 461.2 325.931 461.2 328.067Z" fill="url(#paint5_linear)"/>
<path d="M443.8 258.467C440.597 258.467 438 261.064 438 264.267C438 267.47 440.597 270.067 443.8 270.067C447.003 270.067 449.6 267.47 449.6 264.267C449.6 261.064 447.003 258.467 443.8 258.467ZM443.8 266.2C442.732 266.2 441.867 265.334 441.867 264.267C441.867 263.199 442.732 262.333 443.8 262.333C444.868 262.333 445.733 263.199 445.733 264.267C445.733 265.334 444.868 266.2 443.8 266.2Z" fill="url(#paint6_linear)"/>
<path d="M523.067 293.267H526.933V297.133H523.067V293.267Z" fill="url(#paint7_linear)"/>
<path d="M526.933 285.533H530.8V289.4H526.933V285.533Z" fill="url(#paint8_linear)"/>
<path d="M445.733 343.533H449.6V347.4H445.733V343.533Z" fill="url(#paint9_linear)"/>
<path d="M453.467 283.6H457.333V287.467H453.467V283.6Z" fill="url(#paint10_linear)"/>
<path d="M546.267 250.733C541.996 250.733 538.533 254.196 538.533 258.467C538.533 262.737 541.996 266.2 546.267 266.2C550.537 266.2 554 262.737 554 258.467C554 254.196 550.537 250.733 546.267 250.733ZM546.267 262.333C544.131 262.333 542.4 260.602 542.4 258.467C542.4 256.331 544.131 254.6 546.267 254.6C548.402 254.6 550.133 256.331 550.133 258.467C550.133 260.602 548.402 262.333 546.267 262.333Z" fill="url(#paint11_linear)"/>
<path d="M542.4 273.933C542.4 276.069 540.669 277.8 538.533 277.8C536.398 277.8 534.667 276.069 534.667 273.933C534.667 271.798 536.398 270.067 538.533 270.067C540.669 270.067 542.4 271.798 542.4 273.933Z" fill="url(#paint12_linear)"/>
<path d="M542.4 347.4H546.267V351.267H542.4V347.4Z" fill="url(#paint13_linear)"/>
</g>
<defs>
<linearGradient id="paint0_linear" x1="436.067" y1="301" x2="561.613" y2="301" gradientUnits="userSpaceOnUse">
<stop stop-color="#20D6DE"/>
<stop offset="1" stop-color="#C24AD2"/>
</linearGradient>
<linearGradient id="paint1_linear" x1="436.067" y1="264.267" x2="561.613" y2="264.267" gradientUnits="userSpaceOnUse">
<stop stop-color="#20D6DE"/>
<stop offset="1" stop-color="#C24AD2"/>
</linearGradient>
<linearGradient id="paint2_linear" x1="436.067" y1="264.267" x2="561.613" y2="264.267" gradientUnits="userSpaceOnUse">
<stop stop-color="#20D6DE"/>
<stop offset="1" stop-color="#C24AD2"/>
</linearGradient>
<linearGradient id="paint3_linear" x1="436.067" y1="337.733" x2="561.613" y2="337.733" gradientUnits="userSpaceOnUse">
<stop stop-color="#20D6DE"/>
<stop offset="1" stop-color="#C24AD2"/>
</linearGradient>
<linearGradient id="paint4_linear" x1="436.067" y1="337.733" x2="561.613" y2="337.733" gradientUnits="userSpaceOnUse">
<stop stop-color="#20D6DE"/>
<stop offset="1" stop-color="#C24AD2"/>
</linearGradient>
<linearGradient id="paint5_linear" x1="436.067" y1="328.067" x2="561.613" y2="328.067" gradientUnits="userSpaceOnUse">
<stop stop-color="#20D6DE"/>
<stop offset="1" stop-color="#C24AD2"/>
</linearGradient>
<linearGradient id="paint6_linear" x1="436.067" y1="264.267" x2="561.613" y2="264.267" gradientUnits="userSpaceOnUse">
<stop stop-color="#20D6DE"/>
<stop offset="1" stop-color="#C24AD2"/>
</linearGradient>
<linearGradient id="paint7_linear" x1="436.067" y1="295.2" x2="561.613" y2="295.2" gradientUnits="userSpaceOnUse">
<stop stop-color="#20D6DE"/>
<stop offset="1" stop-color="#C24AD2"/>
</linearGradient>
<linearGradient id="paint8_linear" x1="436.066" y1="287.467" x2="561.614" y2="287.467" gradientUnits="userSpaceOnUse">
<stop stop-color="#20D6DE"/>
<stop offset="1" stop-color="#C24AD2"/>
</linearGradient>
<linearGradient id="paint9_linear" x1="436.067" y1="345.467" x2="561.613" y2="345.467" gradientUnits="userSpaceOnUse">
<stop stop-color="#20D6DE"/>
<stop offset="1" stop-color="#C24AD2"/>
</linearGradient>
<linearGradient id="paint10_linear" x1="436.067" y1="285.533" x2="561.613" y2="285.533" gradientUnits="userSpaceOnUse">
<stop stop-color="#20D6DE"/>
<stop offset="1" stop-color="#C24AD2"/>
</linearGradient>
<linearGradient id="paint11_linear" x1="436.067" y1="258.467" x2="561.613" y2="258.467" gradientUnits="userSpaceOnUse">
<stop stop-color="#20D6DE"/>
<stop offset="1" stop-color="#C24AD2"/>
</linearGradient>
<linearGradient id="paint12_linear" x1="436.067" y1="273.933" x2="561.613" y2="273.933" gradientUnits="userSpaceOnUse">
<stop stop-color="#20D6DE"/>
<stop offset="1" stop-color="#C24AD2"/>
</linearGradient>
<linearGradient id="paint13_linear" x1="436.067" y1="349.333" x2="561.613" y2="349.333" gradientUnits="userSpaceOnUse">
<stop stop-color="#20D6DE"/>
<stop offset="1" stop-color="#C24AD2"/>
</linearGradient>
<clipPath id="clip0">
<rect width="797.5" height="834.5" fill="white"/>
</clipPath>
</defs>
</svg>
